<svg width="56.000000" height="56.000000" viewBox="0 0 56 56" fill="none" xmlns="http://www.w3.org/2000/svg" xmlns:xlink="http://www.w3.org/1999/xlink">
	<desc>
			Created with Pixso.
	</desc>
	<defs/>
	<circle id="Ellipse 59" cx="28.000000" cy="28.000000" r="28.000000" fill="#274C5B" fill-opacity="1.000000"/>
	<path id="Vector" d="M24.7783 39.0001C25.4531 39.0001 26 38.4529 26 37.7779C26 37.1029 25.4531 36.5557 24.7783 36.5557C24.1025 36.5557 23.5557 37.1029 23.5557 37.7779C23.5557 38.4529 24.1025 39.0001 24.7783 39.0001Z" fill="#FFFFFF" fill-opacity="1.000000" fill-rule="nonzero"/>
	<path id="Vector" d="M24.7783 39.0001C24.1025 39.0001 23.5557 38.4529 23.5557 37.7779C23.5557 37.1029 24.1025 36.5557 24.7783 36.5557C25.4531 36.5557 26 37.1029 26 37.7779C26 38.4529 25.4531 39.0001 24.7783 39.0001Z" stroke="#FFFFFF" stroke-opacity="1.000000" stroke-width="1.500000" stroke-linejoin="round"/>
	<path id="Vector" d="M33.334 39.0001C34.0088 39.0001 34.5557 38.4529 34.5557 37.7779C34.5557 37.1029 34.0088 36.5557 33.334 36.5557C32.6582 36.5557 32.1113 37.1029 32.1113 37.7779C32.1113 38.4529 32.6582 39.0001 33.334 39.0001Z" fill="#FFFFFF" fill-opacity="1.000000" fill-rule="nonzero"/>
	<path id="Vector" d="M33.334 39.0001C32.6582 39.0001 32.1113 38.4529 32.1113 37.7779C32.1113 37.1029 32.6582 36.5557 33.334 36.5557C34.0088 36.5557 34.5557 37.1029 34.5557 37.7779C34.5557 38.4529 34.0088 39.0001 33.334 39.0001Z" stroke="#FFFFFF" stroke-opacity="1.000000" stroke-width="1.500000" stroke-linejoin="round"/>
	<path id="Vector" d="M15 17L18.7822 17L21.6182 33.0731L36.7461 33.0731" stroke="#FFFFFF" stroke-opacity="1.000000" stroke-width="2.000000" stroke-linejoin="round" stroke-linecap="round"/>
	<path id="Vector" d="M21.1113 29.1837L36.3584 29.2907C36.4678 29.2908 36.5732 29.2529 36.6582 29.1837C36.7432 29.1144 36.8008 29.0179 36.8223 28.9107L38.5244 20.4015C38.5381 20.3328 38.5361 20.262 38.5195 20.1941C38.502 20.1262 38.4707 20.063 38.4258 20.0089C38.3818 19.9548 38.3262 19.9112 38.2627 19.8813C38.1992 19.8514 38.1299 19.8359 38.0605 19.8359L19.5674 19.8359" stroke="#FFFFFF" stroke-opacity="1.000000" stroke-width="2.000000" stroke-linejoin="round" stroke-linecap="round"/>
</svg>
