<svg width="56.000000" height="56.000000" viewBox="0 0 56 56" fill="none" xmlns="http://www.w3.org/2000/svg" xmlns:xlink="http://www.w3.org/1999/xlink">
	<desc>
			Created with Pixso.
	</desc>
	<defs/>
	<circle id="Ellipse 59" cx="28.000000" cy="28.000000" r="28.000000" fill="#7EB693" fill-opacity="1.000000"/>
	<path id="Vector" d="M39.6782 35.8921L34.9175 31.1315C36.0635 29.6057 36.6826 27.7485 36.6802 25.8402C36.6802 20.9657 32.7144 17 27.8403 17C22.9658 17 19 20.9657 19 25.8402C19 30.7146 22.9658 34.6803 27.8403 34.6803C29.7485 34.6824 31.6055 34.0637 33.1313 32.9175L37.8921 37.6781C38.1333 37.8936 38.4473 38.0085 38.7705 37.9995C39.0938 37.9905 39.4009 37.8581 39.6294 37.6295C39.8579 37.401 39.9902 37.0936 39.9995 36.7705C40.0088 36.4474 39.8936 36.1331 39.6782 35.8921ZM21.5259 25.8402C21.5259 24.5913 21.896 23.3705 22.5898 22.3321C23.2837 21.2937 24.27 20.4843 25.4238 20.0064C26.5776 19.5285 27.8472 19.4034 29.0723 19.6471C30.2969 19.8907 31.4219 20.4921 32.3052 21.3752C33.188 22.2583 33.7896 23.3834 34.0332 24.6083C34.2769 25.8332 34.1519 27.1028 33.6738 28.2566C33.1958 29.4104 32.3867 30.3966 31.3481 31.0904C30.3101 31.7842 29.0889 32.1546 27.8403 32.1546C26.166 32.1525 24.561 31.4866 23.3774 30.3029C22.1938 29.1192 21.5278 27.5142 21.5259 25.8402Z" fill="#FAFAFA" fill-opacity="1.000000" fill-rule="nonzero"/>
</svg>
