<svg width="13.917969" height="12.969238" viewBox="0 0 13.918 12.9692" fill="none" xmlns="http://www.w3.org/2000/svg" xmlns:xlink="http://www.w3.org/1999/xlink">
	<desc>
			Created with Pixso.
	</desc>
	<defs/>
	<path id="Star 7" d="M6.0127 0.677734L5.02881 3.56714C4.89111 3.97241 4.51025 4.24487 4.08252 4.24487L1.00195 4.24487C0.0219727 4.24487 -0.373047 5.50806 0.432129 6.06665L2.84277 7.73853C3.20996 7.99292 3.36377 8.45972 3.21973 8.88257L2.28027 11.6426C1.96924 12.5557 3.00439 13.3362 3.79688 12.7866L6.38916 10.9885C6.73193 10.7507 7.18652 10.7507 7.5293 10.9885L10.1216 12.7866C10.9141 13.3362 11.9487 12.5557 11.6382 11.6426L10.6987 8.88257C10.5547 8.45972 10.7085 7.99292 11.0752 7.73853L13.4863 6.06665C14.2915 5.50806 13.896 4.24487 12.916 4.24487L9.83594 4.24487C9.40771 4.24487 9.02734 3.97241 8.88916 3.56714L7.90576 0.677734C7.59814 -0.226074 6.32031 -0.226074 6.0127 0.677734Z" fill="#FFA858" fill-opacity="1.000000" fill-rule="evenodd"/>
</svg>
