<svg width="199.791016" height="55.715790" viewBox="0 0 199.791 55.7158" fill="none" xmlns="http://www.w3.org/2000/svg" xmlns:xlink="http://www.w3.org/1999/xlink">
	<desc>
			Created with Pixso.
	</desc>
	<defs/>
	<path id="Organick" d="M186.194 35.2349L188.124 33.3052L193.282 41.3579L199.442 41.3579L191.557 29.6499L198.812 21.2817L192.373 21.2817L187.233 27.312L186.194 28.648L186.194 12.8579L180.832 12.8579L180.832 41.3579L186.194 41.3579L186.194 35.2349ZM151.211 14.7598Q150.903 15.3417 150.903 16.0864Q150.903 16.8453 151.22 17.4331Q151.415 17.7939 151.729 18.0903Q151.888 18.2403 152.066 18.3614Q152.815 18.8696 153.909 18.8696Q155.003 18.8696 155.752 18.3614Q155.93 18.2403 156.089 18.0903Q156.403 17.7939 156.598 17.4331Q156.915 16.8453 156.915 16.0864Q156.915 15.355 156.615 14.7805Q156.42 14.4077 156.099 14.1011Q155.963 13.9712 155.811 13.863Q155.053 13.3218 153.909 13.3218Q152.716 13.3218 151.953 13.8943Q151.826 13.9897 151.71 14.1011Q151.402 14.3992 151.211 14.7598ZM68.9844 35.4575Q70.3945 32.4517 70.3945 28.4624L70.3945 27.2563Q70.3945 23.2856 68.9565 20.252Q67.869 17.9576 66.1023 16.4699Q65.533 15.9904 64.8931 15.5947Q64.3493 15.2585 63.7732 14.9918Q61.5681 13.9712 58.8906 13.9712Q56.2131 13.9712 54.008 14.9918Q53.432 15.2585 52.8882 15.5947Q52.2483 15.9904 51.679 16.4699Q49.9122 17.9576 48.8247 20.252Q47.3867 23.2856 47.3867 27.2749L47.3867 28.6108Q47.4053 32.5073 48.8525 35.5039Q49.9087 37.6908 51.5974 39.1414Q52.2226 39.6786 52.9346 40.1147Q53.5233 40.4754 54.1481 40.7555Q56.3197 41.729 58.9277 41.729Q61.6519 41.729 63.8804 40.6781Q64.4296 40.419 64.9487 40.0962Q65.6897 39.6354 66.3339 39.0652Q67.9722 37.6151 68.9844 35.4575ZM63.2324 20.7808Q64.7539 22.9888 64.7539 27.2378L64.7539 28.5552Q64.7354 32.7671 63.2324 34.9658Q62.5681 35.9376 61.6501 36.4799Q60.4911 37.1646 58.9277 37.1646Q57.368 37.1646 56.2063 36.4845Q55.2398 35.9188 54.5488 34.8823Q53.0273 32.6001 53.0273 28.4624L53.0273 27.145Q53.0459 22.9331 54.5674 20.7529Q55.2351 19.7962 56.1494 19.2593Q57.3184 18.5728 58.8906 18.5728Q60.4649 18.5728 61.6346 19.2608Q62.5602 19.8053 63.2324 20.7808ZM83.4385 26.1616Q84.2734 26.1616 85.3682 26.3101L85.4424 21.1519Q84.6631 20.9106 83.7725 20.9106Q82.6678 20.9106 81.749 21.3238Q80.291 21.9794 79.3008 23.6753L79.1523 21.2817L74.0869 21.2817L74.0869 41.3579L79.4492 41.3579L79.4492 28.2212Q79.6966 27.6829 80.0871 27.2852Q81.1909 26.1616 83.4385 26.1616ZM89.0142 23.731Q86.8154 26.5513 86.8154 31.1714L86.8154 31.394Q86.8154 36.0698 89.0513 38.8994Q90.1595 40.302 91.6075 41.0094Q93.0806 41.729 94.9053 41.729Q96.7608 41.729 98.1763 40.9398Q99.068 40.4427 99.7852 39.6323L99.7852 40.7085Q99.7852 42.5166 98.902 43.6141Q98.7611 43.7892 98.5977 43.9463Q98.5012 44.0389 98.3986 44.1241Q97.2369 45.0874 95.2764 45.0874Q94.0684 45.0874 93.013 44.6862Q91.5718 44.1383 90.415 42.8423L88.04 46.1079Q89.1162 47.4995 91.2129 48.3809Q92.6565 48.9877 94.1529 49.1767Q94.8298 49.2622 95.5176 49.2622Q98.4307 49.2622 100.602 48.2417Q102.003 47.583 102.998 46.5379Q103.545 45.9638 103.969 45.2729Q104.029 45.176 104.085 45.0773Q105.166 43.1936 105.166 40.6899L105.166 21.2817L100.305 21.2817L100.082 23.1743Q99.4679 22.4175 98.6898 21.9137Q97.1409 20.9106 94.9424 20.9106Q92.8747 20.9106 91.2776 21.7775Q89.9939 22.4743 89.0142 23.731ZM120.381 39.5581Q120.548 40.6343 120.919 41.3579L126.337 41.3579L126.337 41.0425Q125.558 39.5767 125.539 36.7192L125.539 28.0171Q125.539 25.5675 124.392 23.9136Q123.958 23.2875 123.359 22.7754Q123.306 22.7306 123.253 22.6868Q121.089 20.9106 117.468 20.9106Q115.019 20.9106 113.052 21.7549Q111.085 22.5991 110.009 24.0835Q109.33 25.0192 109.08 26.058Q108.933 26.6673 108.933 27.312L114.295 27.312Q114.295 26.5635 114.632 26.026Q114.804 25.7507 115.065 25.5308Q115.835 24.8813 117.189 24.8813Q118.61 24.8813 119.328 25.5914Q119.388 25.6513 119.444 25.7163Q119.484 25.7627 119.521 25.8107Q120.158 26.6285 120.158 27.9429L120.158 29.0933L117.69 29.0933Q113.219 29.1118 110.853 30.8188Q109.924 31.4891 109.36 32.3883Q108.487 33.779 108.487 35.7173Q108.487 37.0373 108.988 38.1273Q109.473 39.1824 110.426 40.022Q110.896 40.4353 111.425 40.7486Q113.08 41.729 115.315 41.729Q117.184 41.729 118.632 40.9491Q119.6 40.4278 120.381 39.5581ZM134.761 23.6011L134.594 21.2817L129.547 21.2817L129.547 41.3579L134.909 41.3579L134.909 27.2007Q135.462 26.2589 136.284 25.7767Q137.146 25.271 138.305 25.271Q140.03 25.271 140.772 26.041Q141.515 26.811 141.515 28.5181L141.515 41.3579L146.877 41.3579L146.877 28.3882Q146.84 24.6587 145.281 22.7847Q145.037 22.4913 144.753 22.2439Q143.223 20.9106 140.531 20.9106Q138.487 20.9106 136.911 21.7695Q135.697 22.4307 134.761 23.6011ZM171.479 36.8211Q170.621 37.4058 169.365 37.4058Q168.058 37.4058 167.202 36.7844Q166.795 36.4883 166.489 36.0513Q165.543 34.6968 165.543 31.5981L165.543 31.0415Q165.543 27.98 166.499 26.6162Q166.846 26.1207 167.314 25.8053Q168.135 25.2524 169.328 25.2524Q170.384 25.2524 171.154 25.7218Q171.494 25.9286 171.777 26.2266Q171.987 26.4471 172.152 26.6976Q172.713 27.5535 172.742 28.7593L177.771 28.7593Q177.744 26.233 176.594 24.4205Q176.122 23.677 175.46 23.0537Q175.061 22.6776 174.617 22.3674Q172.526 20.9106 169.421 20.9106Q166.331 20.9106 164.188 22.3347Q163.345 22.8948 162.648 23.6753Q162.415 23.937 162.203 24.2155Q160.181 26.879 160.181 31.0786L160.181 31.4312Q160.181 36.0407 162.451 38.7445Q162.556 38.8704 162.667 38.9922Q163.351 39.7448 164.172 40.2905Q166.337 41.729 169.458 41.729Q171.494 41.729 173.218 40.9951Q173.442 40.8998 173.661 40.792Q174.932 40.1657 175.842 39.1996Q176.294 38.7203 176.657 38.1572Q177.168 37.3651 177.445 36.4982Q177.761 35.5072 177.771 34.4185L172.742 34.4185Q172.718 35.2889 172.327 35.9371Q172.109 36.2976 171.777 36.5894Q171.635 36.7149 171.479 36.8211ZM151.219 41.3579L156.6 41.3579L156.6 21.2817L151.219 21.2817L151.219 41.3579ZM93.2725 35.8379Q92.1777 34.2886 92.1777 31.561Q92.1777 28.4253 93.2817 26.8481Q93.8307 26.0639 94.5838 25.6696Q95.3453 25.271 96.3154 25.271Q97.7925 25.271 98.7679 25.9705Q99.3731 26.4046 99.7852 27.1079L99.7852 35.5503Q99.4063 36.2083 98.8488 36.6306Q97.8502 37.3872 96.2783 37.3872Q95.306 37.3872 94.5451 36.9862Q93.8103 36.599 93.2725 35.8379ZM118.059 37.3681Q117.317 37.6284 116.484 37.6284Q115.358 37.6284 114.671 37.0789Q114.611 37.0311 114.555 36.979Q114.25 36.6987 114.077 36.3528Q113.85 35.8972 113.85 35.3276L113.868 35.0122Q113.948 34.1534 114.387 33.5596Q115.37 32.229 118.154 32.229L120.158 32.229L120.158 35.6802Q120.072 35.8393 119.969 35.9869Q119.497 36.6653 118.674 37.0996Q118.375 37.2574 118.059 37.3681Z" fill="#274C5B" fill-opacity="1.000000" fill-rule="evenodd"/>
	<path id="Vector" d="M1.85059 41.9263L19.291 41.9263L36.731 41.9263" stroke="#7EB693" stroke-opacity="1.000000" stroke-width="2.000000"/>
	<path id="Vector" d="M5.79102 48.3579L19.291 48.3579L32.791 48.3579" stroke="#7EB693" stroke-opacity="1.000000" stroke-width="2.000000"/>
	<path id="Vector" d="M18.791 1.35791L18.791 8.35791L18.791 15.3579" stroke="#7EB693" stroke-opacity="1.000000" stroke-width="2.000000"/>
	<path id="Vector" d="M18.8657 14.6421L18.8657 41.0737" stroke="#7EB693" stroke-opacity="1.000000" stroke-width="2.000000"/>
	<path id="Vector" d="M29.9253 4.41065L18.8657 15.4949" stroke="#7EB693" stroke-opacity="1.000000" stroke-width="2.000000"/>
	<path id="Vector" d="M34.1792 8.67383L18.8657 24.0212" stroke="#7EB693" stroke-opacity="1.000000" stroke-width="2.000000"/>
	<path id="Vector" d="M36.7314 15.4946L18.8657 32.5473" stroke="#7EB693" stroke-opacity="1.000000" stroke-width="2.000000"/>
	<path id="Vector" d="M37.582 23.1685L18.8657 41.9264" stroke="#7EB693" stroke-opacity="1.000000" stroke-width="2.000000"/>
	<path id="Vector" d="M37.582 31.6948L27.373 41.9264" stroke="#7EB693" stroke-opacity="1.000000" stroke-width="2.000000"/>
	<path id="Vector" d="M1 31.6948L11.209 41.9264" stroke="#7EB693" stroke-opacity="1.000000" stroke-width="2.000000"/>
	<path id="Vector" d="M8.65674 4.41065L18.8657 15.4949" stroke="#7EB693" stroke-opacity="1.000000" stroke-width="2.000000"/>
	<path id="Vector" d="M4.40283 8.67383L18.8657 24.0212" stroke="#7EB693" stroke-opacity="1.000000" stroke-width="2.000000"/>
	<path id="Vector" d="M1.85059 14.6421L18.8657 32.5473" stroke="#7EB693" stroke-opacity="1.000000" stroke-width="2.000000"/>
	<path id="Vector" d="M1 22.3159L18.8657 41.0738" stroke="#7EB693" stroke-opacity="1.000000" stroke-width="2.000000"/>
	<path id="Vector" d="M1 35.8351L1 19.8807C1 9.4542 9.18994 1 19.291 1C29.3936 1 37.582 9.4542 37.582 19.8807L37.582 35.8351C37.584 46.2635 29.3936 54.7158 19.291 54.7158C9.18994 54.7158 1 46.2635 1 35.8351Z" stroke="#7EB693" stroke-opacity="1.000000" stroke-width="2.000000"/>
</svg>
